HIERARCHY
ROOT Haolin_V1:Solving:Hips
{
	OFFSET 0.000000 0.000000 0.000000
	CHANNELS 6 Xposition Yposition Zposition Xrotation Yrotation Zrotation
	JOINT Haolin_V1:Solving:Spine
	{
		OFFSET 0.000000 -12.731938 2.520517
		CHANNELS 6 Xposition Yposition Zposition Xrotation Yrotation Zrotation
		JOINT Haolin_V1:Solving:Spine1
		{
			OFFSET 0.000000 -8.486854 1.496462
			CHANNELS 6 Xposition Yposition Zposition Xrotation Yrotation Zrotation
			JOINT Haolin_V1:Solving:Spine2
			{
				OFFSET 0.000000 -8.584984 0.751091
				CHANNELS 6 Xposition Yposition Zposition Xrotation Yrotation Zrotation
				JOINT Haolin_V1:Solving:Spine3
				{
					OFFSET 0.000000 -8.617775 0.000000
					CHANNELS 6 Xposition Yposition Zposition Xrotation Yrotation Zrotation
					JOINT Haolin_V1:Solving:Neck
					{
						OFFSET 0.000000 -11.080002 -1.107998
						CHANNELS 6 Xposition Yposition Zposition Xrotation Yrotation Zrotation
						JOINT Haolin_V1:Solving:Neck1
						{
							OFFSET 0.000000 -8.314011 -0.727381
							CHANNELS 6 Xposition Yposition Zposition Xrotation Yrotation Zrotation
							JOINT Haolin_V1:Solving:Head
							{
								OFFSET 0.000000 -8.218975 -1.449226
								CHANNELS 6 Xposition Yposition Zposition Xrotation Yrotation Zrotation
								JOINT Haolin_V1:Solving:HeadEnd
								{
									OFFSET 0.000000 -9.728081 0.000002
									CHANNELS 6 Xposition Yposition Zposition Xrotation Yrotation Zrotation
									End Site
									{
										OFFSET 0.000000 -9.728081 0.000002
									}
								}
							}
						}
					}
					JOINT Haolin_V1:Solving:RightShoulder
					{
						OFFSET 0.000000 -7.914288 -5.288076
						CHANNELS 6 Xposition Yposition Zposition Xrotation Yrotation Zrotation
						JOINT Haolin_V1:Solving:RightArm
						{
							OFFSET -20.201836 -0.000008 0.000000
							CHANNELS 6 Xposition Yposition Zposition Xrotation Yrotation Zrotation
							JOINT Haolin_V1:Solving:RightForeArm
							{
								OFFSET -29.446457 -0.000008 0.000000
								CHANNELS 6 Xposition Yposition Zposition Xrotation Yrotation Zrotation
								JOINT Haolin_V1:Solving:RightHand
								{
									OFFSET -23.111885 -0.000008 0.000000
									CHANNELS 6 Xposition Yposition Zposition Xrotation Yrotation Zrotation
									JOINT Haolin_V1:Solving:RightHandThumb1
									{
										OFFSET -3.824379 2.925484 -2.843767
										CHANNELS 6 Xposition Yposition Zposition Xrotation Yrotation Zrotation
										End Site
										{
											OFFSET -5.557076 0.000000 -5.608460
										}
									}
									JOINT Haolin_V1:Solving:RightHandMiddle1
									{
										OFFSET -10.198334 -0.000004 0.065374
										CHANNELS 6 Xposition Yposition Zposition Xrotation Yrotation Zrotation
										End Site
										{
											OFFSET -7.895309 -0.000004 0.000000
										}
									}
								}
							}
						}
					}
					JOINT Haolin_V1:Solving:LeftShoulder
					{
						OFFSET 0.000000 -7.914288 -5.288076
						CHANNELS 6 Xposition Yposition Zposition Xrotation Yrotation Zrotation
						JOINT Haolin_V1:Solving:LeftArm
						{
							OFFSET 20.201836 -0.000008 0.000000
							CHANNELS 6 Xposition Yposition Zposition Xrotation Yrotation Zrotation
							JOINT Haolin_V1:Solving:LeftForeArm
							{
								OFFSET 29.446457 -0.000008 0.000000
								CHANNELS 6 Xposition Yposition Zposition Xrotation Yrotation Zrotation
								JOINT Haolin_V1:Solving:LeftHand
								{
									OFFSET 23.111885 -0.000008 0.000000
									CHANNELS 6 Xposition Yposition Zposition Xrotation Yrotation Zrotation
									JOINT Haolin_V1:Solving:LeftHandThumb1
									{
										OFFSET 3.824379 2.925484 -2.843767
										CHANNELS 6 Xposition Yposition Zposition Xrotation Yrotation Zrotation
										End Site
										{
											OFFSET 5.557076 0.000000 -5.608460
										}
									}
									JOINT Haolin_V1:Solving:LeftHandMiddle1
									{
										OFFSET 10.198334 -0.000004 0.065374
										CHANNELS 6 Xposition Yposition Zposition Xrotation Yrotation Zrotation
										End Site
										{
											OFFSET 7.895309 -0.000004 0.000000
										}
									}
								}
							}
						}
					}
				}
			}
		}
	}
	JOINT Haolin_V1:Solving:RightUpLeg
	{
		OFFSET -10.695510 0.000000 0.000000
		CHANNELS 6 Xposition Yposition Zposition Xrotation Yrotation Zrotation
		JOINT Haolin_V1:Solving:RightLeg
		{
			OFFSET 0.000000 46.236332 -0.000006
			CHANNELS 6 Xposition Yposition Zposition Xrotation Yrotation Zrotation
			JOINT Haolin_V1:Solving:RightFoot
			{
				OFFSET 0.000000 41.248135 -0.000006
				CHANNELS 6 Xposition Yposition Zposition Xrotation Yrotation Zrotation
				JOINT Haolin_V1:Solving:RightForeFoot
				{
					OFFSET 0.000000 3.207336 -0.000000
					CHANNELS 6 Xposition Yposition Zposition Xrotation Yrotation Zrotation
					JOINT Haolin_V1:Solving:RightToeBase
					{
						OFFSET 0.000000 0.000000 -12.560947
						CHANNELS 6 Xposition Yposition Zposition Xrotation Yrotation Zrotation
						JOINT Haolin_V1:Solving:RightToeBaseEnd
						{
							OFFSET 0.000000 0.000000 -3.517768
							CHANNELS 6 Xposition Yposition Zposition Xrotation Yrotation Zrotation
							End Site
							{
								OFFSET 0.000000 -3.517769 0.000004
							}
						}
					}
				}
			}
		}
	}
	JOINT Haolin_V1:Solving:LeftUpLeg
	{
		OFFSET 10.695510 0.000000 0.000000
		CHANNELS 6 Xposition Yposition Zposition Xrotation Yrotation Zrotation
		JOINT Haolin_V1:Solving:LeftLeg
		{
			OFFSET 0.000000 46.236332 -0.000006
			CHANNELS 6 Xposition Yposition Zposition Xrotation Yrotation Zrotation
			JOINT Haolin_V1:Solving:LeftFoot
			{
				OFFSET 0.000000 41.248135 -0.000006
				CHANNELS 6 Xposition Yposition Zposition Xrotation Yrotation Zrotation
				JOINT Haolin_V1:Solving:LeftForeFoot
				{
					OFFSET 0.000000 3.207336 -0.000000
					CHANNELS 6 Xposition Yposition Zposition Xrotation Yrotation Zrotation
					JOINT Haolin_V1:Solving:LeftToeBase
					{
						OFFSET 0.000000 0.000000 -12.560947
						CHANNELS 6 Xposition Yposition Zposition Xrotation Yrotation Zrotation
						JOINT Haolin_V1:Solving:LeftToeBaseEnd
						{
							OFFSET 0.000000 0.000000 -3.901837
							CHANNELS 6 Xposition Yposition Zposition Xrotation Yrotation Zrotation
							End Site
							{
								OFFSET 0.000000 -3.901840 0.000004
							}
						}
					}
				}
			}
		}
	}
}
MOTION
Frames: 4
Frame Time: 0.041667
-35.962147 -120.269104 -95.124359 88.324441 -1.188004 -0.301981 -0.000009 -12.731926 2.520518 12.343164 -0.708539 -3.308525 0.000011 -8.486858 1.496480 -0.045173 -0.078061 0.035107 -0.000002 -8.584973 0.751094 -5.292774 -0.262514 0.790178 -0.000001 -8.617784 0.000025 -2.649172 -0.098487 1.728322 -0.000004 -11.079991 -1.108008 2.536238 -1.441839 -1.106977 -0.000006 -8.314033 -0.727379 2.251249 -4.903714 -1.587065 -0.000001 -8.218977 -1.449266 9.921341 -0.132558 -1.994481 0.000007 -9.728043 0.000013 -0.000001 0.000001 -0.000001 -0.000009 -7.914253 -5.288086 -0.000010 17.163816 12.332123 -20.201830 -0.000006 -0.000021 -5.391667 -43.263412 -92.032380 -29.446447 -0.000009 0.000023 12.180808 -24.203298 5.057221 -23.111897 -0.000011 -0.000003 0.027768 0.369470 -4.298237 -3.824408 2.925481 -2.843775 0.000006 -0.000009 0.000002 -10.198343 -0.000024 0.065354 0.000003 -0.000003 -0.000003 -0.000008 -7.914265 -5.288085 -0.000006 -13.915011 -11.312771 20.201828 -0.000010 0.000008 -6.714041 31.399124 93.449029 29.446466 0.000000 0.000010 27.194536 8.994422 -4.592577 23.111862 -0.000002 0.000007 1.477702 4.500612 -18.198187 3.824374 2.925465 -2.843757 -0.000005 0.000002 0.000003 10.198309 -0.000005 0.065401 -0.000012 -0.000001 -0.000003 -10.695521 0.000015 -0.000007 5.806312 9.112651 -0.536727 -0.000002 46.236317 0.000015 -0.212083 0.000000 0.000000 0.000009 41.248123 -0.000019 -3.507163 0.088607 -3.763314 -0.000011 3.207336 -0.000008 -0.000000 -0.000000 0.000001 -0.000001 -0.000003 -12.560926 7.858799 -0.000001 -0.000000 -0.000015 -0.000008 -3.517773 0.000000 -0.000000 -0.000001 10.695494 -0.000003 -0.000002 -0.761203 -16.688490 -1.477200 -0.000001 46.236332 0.000009 9.097059 0.000001 0.000001 -0.000003 41.248135 -0.000020 -5.627509 -11.486458 -5.007340 0.000003 3.207344 -0.000006 -0.000001 0.000003 -0.000000 0.000002 -0.000000 -12.560960 8.961446 -0.000002 0.000002 0.000012 0.000000 -3.901811 0.000001 0.000005 0.000000 
-35.996178 -120.216850 -95.113739 88.324325 -1.154340 -0.369240 -0.000009 -12.731925 2.520529 12.357241 -0.738053 -3.293737 -0.000000 -8.486829 1.496469 -0.047010 -0.079994 0.030070 0.000006 -8.584974 0.751106 -5.294191 -0.273216 0.786487 -0.000008 -8.617771 -0.000016 -2.630737 -0.101143 1.720387 -0.000003 -11.079985 -1.107971 2.554678 -1.440847 -1.068964 0.000008 -8.313999 -0.727371 2.263773 -4.857626 -1.551183 -0.000002 -8.218944 -1.449225 9.929008 -0.136768 -1.931125 0.000010 -9.728081 0.000015 -0.000001 0.000002 -0.000000 -0.000014 -7.914295 -5.288053 -0.000008 17.122692 12.291063 -20.201839 -0.000001 -0.000000 -5.455790 -44.062172 -92.596820 -29.446470 -0.000016 0.000037 12.157036 -24.609240 5.126112 -23.111910 -0.000003 -0.000021 0.028549 0.404122 -4.040938 -3.824380 2.925464 -2.843757 0.000001 -0.000007 -0.000002 -10.198334 -0.000036 0.065365 -0.000006 0.000001 -0.000000 -0.000010 -7.914295 -5.288054 -0.000004 -13.891460 -11.307101 20.201834 0.000005 -0.000017 -6.910431 32.550940 94.356912 29.446459 -0.000005 -0.000005 27.957281 9.376566 -4.942137 23.111860 -0.000017 -0.000003 1.550628 4.475009 -19.134312 3.824388 2.925471 -2.843760 -0.000000 -0.000003 0.000001 10.198339 -0.000024 0.065372 -0.000000 0.000001 -0.000003 -10.695500 0.000022 0.000026 5.875870 9.030189 -0.481451 -0.000004 46.236336 -0.000019 -0.305881 0.000000 0.000000 0.000006 41.248138 0.000003 -3.510685 0.098436 -3.957919 -0.000006 3.207336 0.000009 -0.000000 -0.000002 0.000000 -0.000004 -0.000021 -12.560953 7.700202 -0.000003 0.000001 -0.000001 -0.000000 -3.517761 -0.000001 -0.000002 0.000000 10.695504 0.000006 0.000006 -1.008768 -16.497277 -1.494481 0.000009 46.236336 -0.000006 9.683092 -0.000000 0.000001 0.000000 41.248138 -0.000034 -5.742777 -11.719111 -4.936967 -0.000002 3.207336 0.000020 0.000000 0.000002 -0.000000 0.000010 -0.000001 -12.560929 8.796989 -0.000002 -0.000001 0.000002 0.000000 -3.901854 0.000001 0.000004 -0.000002 
-36.035992 -120.160500 -95.108391 88.300283 -1.148648 -0.410242 0.000004 -12.731934 2.520503 12.387527 -0.768542 -3.294221 -0.000002 -8.486850 1.496442 -0.040948 -0.078678 0.021429 -0.000004 -8.584988 0.751084 -5.295417 -0.273668 0.772914 -0.000003 -8.617754 -0.000003 -2.597404 -0.102361 1.724526 -0.000000 -11.080013 -1.107993 2.577193 -1.443703 -1.031607 -0.000006 -8.314023 -0.727432 2.256114 -4.824113 -1.527121 -0.000002 -8.218980 -1.449252 9.913668 -0.139566 -1.887780 -0.000002 -9.728065 -0.000000 0.000001 0.000001 0.000000 0.000003 -7.914333 -5.288074 -0.000007 17.070784 12.218934 -20.201836 -0.000006 0.000001 -5.574441 -44.972260 -93.121037 -29.446440 -0.000016 -0.000002 12.465848 -24.931553 5.323877 -23.111876 -0.000010 0.000002 0.034709 0.549618 -3.614045 -3.824385 2.925473 -2.843760 0.000007 -0.000009 0.000001 -10.198335 -0.000008 0.065371 -0.000007 -0.000003 -0.000001 -0.000001 -7.914333 -5.288074 -0.000004 -13.879210 -11.300403 20.201815 -0.000001 -0.000013 -7.174911 33.674540 95.249747 29.446461 -0.000015 -0.000001 28.828955 9.764142 -5.332847 23.111877 -0.000016 0.000019 1.550514 4.254549 -20.045130 3.824378 2.925492 -2.843745 -0.000002 0.000003 -0.000001 10.198325 -0.000006 0.065392 -0.000003 0.000001 -0.000001 -10.695520 0.000028 0.000013 5.989331 8.959623 -0.465063 -0.000010 46.236336 -0.000016 -0.417726 0.000001 0.000000 -0.000001 41.248150 -0.000001 -3.504862 0.144189 -4.045552 0.000001 3.207336 0.000004 -0.000000 -0.000002 0.000000 -0.000003 -0.000020 -12.560970 7.621549 -0.000000 0.000001 -0.000009 -0.000000 -3.517782 -0.000000 -0.000001 0.000000 10.695509 0.000018 -0.000010 -1.282765 -16.344130 -1.555147 0.000005 46.236328 -0.000008 10.337899 -0.000002 0.000001 0.000009 41.248146 -0.000003 -5.851267 -11.888734 -4.909923 -0.000004 3.207336 0.000009 -0.000000 0.000003 0.000000 0.000007 -0.000002 -12.560945 8.614400 0.000003 -0.000001 0.000010 -0.000000 -3.901837 0.000000 0.000003 -0.000000 
-36.078426 -120.100647 -95.102203 88.259889 -1.170995 -0.433364 0.000009 -12.731918 2.520499 12.431854 -0.802762 -3.318966 0.000006 -8.486866 1.496466 -0.030019 -0.076086 0.008908 0.000007 -8.584965 0.751093 -5.288755 -0.254782 0.759989 -0.000001 -8.617797 0.000026 -2.574080 -0.098097 1.735089 0.000007 -11.080020 -1.107970 2.594267 -1.435736 -0.997426 -0.000009 -8.313975 -0.727411 2.260759 -4.766749 -1.488084 0.000006 -8.218969 -1.449224 9.924036 -0.144029 -1.826081 -0.000002 -9.728081 0.000013 0.000001 -0.000000 -0.000000 0.000005 -7.914268 -5.288061 -0.000011 17.030298 12.148240 -20.201841 0.000014 -0.000007 -5.722487 -45.892191 -93.620918 -29.446442 -0.000005 -0.000012 12.701219 -25.249867 5.491503 -23.111889 -0.000005 -0.000019 0.030916 0.542484 -3.262175 -3.824403 2.925478 -2.843777 -0.000001 0.000002 -0.000001 -10.198333 -0.000002 0.065360 0.000005 -0.000005 0.000001 0.000005 -7.914265 -5.288061 -0.000006 -13.887626 -11.317648 20.201830 0.000017 0.000006 -7.471187 34.775782 96.117837 29.446465 0.000004 0.000023 29.664676 10.140427 -5.726425 23.111895 -0.000026 -0.000005 1.577210 4.126683 -20.938363 3.824378 2.925496 -2.843763 -0.000003 -0.000012 0.000008 10.198341 0.000009 0.065367 -0.000003 -0.000003 -0.000000 -10.695502 0.000005 -0.000016 6.132013 8.953408 -0.474058 0.000004 46.236351 -0.000005 -0.535963 -0.000000 -0.000000 0.000002 41.248131 0.000012 -3.505227 0.170678 -4.094351 0.000004 3.207329 0.000016 -0.000000 -0.000002 0.000000 0.000004 0.000001 -12.560951 7.587203 -0.000002 0.000000 -0.000000 -0.000000 -3.517777 -0.000001 0.000000 0.000000 10.695521 0.000031 -0.000020 -1.566777 -16.118389 -1.635728 0.000006 46.236347 0.000006 11.033753 0.000000 0.000001 -0.000009 41.248138 -0.000014 -6.013600 -12.106828 -4.902058 0.000003 3.207336 0.000009 -0.000000 -0.000002 0.000000 -0.000004 0.000001 -12.560954 8.660390 -0.000002 -0.000000 -0.000003 -0.000008 -3.901818 -0.000001 0.000001 0.000000 
